<mxfile host="app.diagrams.net" modified="2024-01-22T12:30:26.736Z" agent="Mozilla/5.0 (Windows NT 10.0; Win64; x64) AppleWebKit/537.36 (KHTML, like Gecko) Chrome/120.0.0.0 Safari/537.36" etag="yU999_Xb50MsoRwJFtGx" version="22.1.21" type="device">
  <diagram name="Seite-1" id="Pbf81rPbr8IXg5EnhKvV">
    <mxGraphModel dx="691" dy="380" grid="1" gridSize="10" guides="1" tooltips="1" connect="1" arrows="1" fold="1" page="1" pageScale="1" pageWidth="827" pageHeight="1169" math="0" shadow="0">
      <root>
        <mxCell id="0" />
        <mxCell id="1" parent="0" />
        <mxCell id="Y2xVMp4MkkQPzRskuGpE-1" value="" style="endArrow=classic;html=1;rounded=0;strokeColor=#000000;" parent="1" edge="1">
          <mxGeometry width="50" height="50" relative="1" as="geometry">
            <mxPoint x="80" y="680" as="sourcePoint" />
            <mxPoint x="420" y="680" as="targetPoint" />
          </mxGeometry>
        </mxCell>
        <mxCell id="Y2xVMp4MkkQPzRskuGpE-2" value="&lt;font&gt;&lt;b&gt;Time&lt;/b&gt;&lt;/font&gt;" style="text;html=1;strokeColor=none;fillColor=none;align=center;verticalAlign=middle;whiteSpace=wrap;rounded=0;fontColor=#000000;" parent="1" vertex="1">
          <mxGeometry x="374" y="690" width="60" height="20" as="geometry" />
        </mxCell>
        <mxCell id="Y2xVMp4MkkQPzRskuGpE-3" value="" style="rounded=0;whiteSpace=wrap;html=1;fontColor=#333333;fillColor=#f5f5f5;strokeColor=#666666;" parent="1" vertex="1">
          <mxGeometry x="80" y="650" width="300" height="20" as="geometry" />
        </mxCell>
        <mxCell id="Y2xVMp4MkkQPzRskuGpE-6" value="" style="rounded=0;whiteSpace=wrap;html=1;strokeWidth=1;fillWeight=1;hachureGap=8;hachureAngle=45;fillColor=#4D4D4D;sketch=1;shadow=0;fontColor=#111D4F;strokeColor=#4D4D4D;sketchStyle=rough;resizeWidth=0;allowArrows=1;imageAspect=1;jiggle=0;fillStyle=cross-hatch;" parent="1" vertex="1">
          <mxGeometry x="80" y="650" width="300" height="20" as="geometry" />
        </mxCell>
        <mxCell id="Y2xVMp4MkkQPzRskuGpE-7" value="" style="rounded=0;whiteSpace=wrap;html=1;shadow=0;sketch=0;fillColor=#fff2cc;strokeColor=#d6b656;" parent="1" vertex="1">
          <mxGeometry x="80" y="610" width="200" height="20" as="geometry" />
        </mxCell>
        <mxCell id="Y2xVMp4MkkQPzRskuGpE-9" value="" style="rounded=0;whiteSpace=wrap;html=1;shadow=0;sketch=0;fillColor=#b0e3e6;strokeColor=#0e8088;" parent="1" vertex="1">
          <mxGeometry x="150" y="568" width="170" height="20" as="geometry" />
        </mxCell>
        <mxCell id="Y2xVMp4MkkQPzRskuGpE-11" value="" style="rounded=0;whiteSpace=wrap;html=1;shadow=0;sketch=0;fillColor=#d0cee2;strokeColor=#56517e;" parent="1" vertex="1">
          <mxGeometry x="230" y="530" width="150" height="20" as="geometry" />
        </mxCell>
        <mxCell id="Y2xVMp4MkkQPzRskuGpE-13" value="" style="rounded=0;whiteSpace=wrap;html=1;strokeWidth=1;fillWeight=1;hachureGap=8;hachureAngle=45;fillColor=#56517E;sketch=1;shadow=0;strokeColor=#56517E;fontColor=#111D4F;fillStyle=cross-hatch;jiggle=0;" parent="1" vertex="1">
          <mxGeometry x="231.25" y="530" width="148.75" height="20" as="geometry" />
        </mxCell>
        <mxCell id="Y2xVMp4MkkQPzRskuGpE-14" value="Control" style="text;html=1;strokeColor=none;fillColor=none;align=center;verticalAlign=middle;whiteSpace=wrap;rounded=0;fontColor=#000000;" parent="1" vertex="1">
          <mxGeometry x="20" y="645" width="60" height="30" as="geometry" />
        </mxCell>
        <mxCell id="Y2xVMp4MkkQPzRskuGpE-15" value="Arm 1" style="text;html=1;strokeColor=none;fillColor=none;align=center;verticalAlign=middle;whiteSpace=wrap;rounded=0;fontColor=#000000;" parent="1" vertex="1">
          <mxGeometry x="30" y="605" width="50" height="30" as="geometry" />
        </mxCell>
        <mxCell id="Y2xVMp4MkkQPzRskuGpE-16" value="Arm 2" style="text;html=1;strokeColor=none;fillColor=none;align=center;verticalAlign=middle;whiteSpace=wrap;rounded=0;fontColor=#000000;" parent="1" vertex="1">
          <mxGeometry x="100" y="563" width="50" height="30" as="geometry" />
        </mxCell>
        <mxCell id="Y2xVMp4MkkQPzRskuGpE-17" value="Arm 3" style="text;html=1;strokeColor=none;fillColor=none;align=center;verticalAlign=middle;whiteSpace=wrap;rounded=0;fontColor=#000000;" parent="1" vertex="1">
          <mxGeometry x="180" y="525" width="50" height="30" as="geometry" />
        </mxCell>
        <mxCell id="Y2xVMp4MkkQPzRskuGpE-22" value="" style="verticalLabelPosition=bottom;shadow=0;dashed=0;align=center;html=1;verticalAlign=top;strokeWidth=1;shape=mxgraph.mockup.markup.curlyBrace;strokeColor=#4D4D4D;rounded=0;fontColor=#4D4D4D;fillColor=#4D4D4D;" parent="1" vertex="1">
          <mxGeometry x="80" y="470" width="70" height="10" as="geometry" />
        </mxCell>
        <mxCell id="Y2xVMp4MkkQPzRskuGpE-23" value="" style="verticalLabelPosition=bottom;shadow=0;dashed=0;align=center;html=1;verticalAlign=top;strokeWidth=1;shape=mxgraph.mockup.markup.curlyBrace;strokeColor=#4D4D4D;rounded=0;fontColor=#4D4D4D;fillColor=#4D4D4D;" parent="1" vertex="1">
          <mxGeometry x="150" y="470" width="80" height="10" as="geometry" />
        </mxCell>
        <mxCell id="Y2xVMp4MkkQPzRskuGpE-24" value="" style="verticalLabelPosition=bottom;shadow=0;dashed=0;align=center;html=1;verticalAlign=top;strokeWidth=1;shape=mxgraph.mockup.markup.curlyBrace;strokeColor=#4D4D4D;rounded=0;fontColor=#4D4D4D;fillColor=#4D4D4D;" parent="1" vertex="1">
          <mxGeometry x="231.25" y="470" width="48.75" height="10" as="geometry" />
        </mxCell>
        <mxCell id="Y2xVMp4MkkQPzRskuGpE-25" value="" style="verticalLabelPosition=bottom;shadow=0;dashed=0;align=center;html=1;verticalAlign=top;strokeWidth=1;shape=mxgraph.mockup.markup.curlyBrace;strokeColor=#4D4D4D;rounded=0;fontColor=#4D4D4D;fillColor=#4D4D4D;" parent="1" vertex="1">
          <mxGeometry x="280" y="470" width="40" height="10" as="geometry" />
        </mxCell>
        <mxCell id="Y2xVMp4MkkQPzRskuGpE-26" value="" style="verticalLabelPosition=bottom;shadow=0;dashed=0;align=center;html=1;verticalAlign=top;strokeWidth=1;shape=mxgraph.mockup.markup.curlyBrace;strokeColor=#4D4D4D;rounded=0;fontColor=#4D4D4D;fillColor=#4D4D4D;" parent="1" vertex="1">
          <mxGeometry x="320" y="470" width="60" height="10" as="geometry" />
        </mxCell>
        <mxCell id="Y2xVMp4MkkQPzRskuGpE-29" value="period&lt;br&gt;1" style="text;html=1;strokeColor=none;fillColor=none;align=center;verticalAlign=middle;whiteSpace=wrap;rounded=0;fontColor=#000000;fontSize=11;" parent="1" vertex="1">
          <mxGeometry x="85" y="440" width="60" height="30" as="geometry" />
        </mxCell>
        <mxCell id="Y2xVMp4MkkQPzRskuGpE-30" value="period&lt;br&gt;2" style="text;html=1;strokeColor=none;fillColor=none;align=center;verticalAlign=middle;whiteSpace=wrap;rounded=0;fontColor=#000000;fontSize=11;" parent="1" vertex="1">
          <mxGeometry x="160" y="440" width="60" height="30" as="geometry" />
        </mxCell>
        <mxCell id="Y2xVMp4MkkQPzRskuGpE-31" value="period&lt;br&gt;3" style="text;html=1;strokeColor=none;fillColor=none;align=center;verticalAlign=middle;whiteSpace=wrap;rounded=0;fontColor=#000000;fontSize=11;" parent="1" vertex="1">
          <mxGeometry x="225.63" y="440" width="60" height="30" as="geometry" />
        </mxCell>
        <mxCell id="Y2xVMp4MkkQPzRskuGpE-32" value="period&lt;br&gt;4" style="text;html=1;strokeColor=none;fillColor=none;align=center;verticalAlign=middle;whiteSpace=wrap;rounded=0;fontColor=#000000;fontSize=11;" parent="1" vertex="1">
          <mxGeometry x="270" y="440" width="60" height="30" as="geometry" />
        </mxCell>
        <mxCell id="Y2xVMp4MkkQPzRskuGpE-33" value="period&lt;br&gt;5" style="text;html=1;strokeColor=none;fillColor=none;align=center;verticalAlign=middle;whiteSpace=wrap;rounded=0;fontColor=#000000;fontSize=11;" parent="1" vertex="1">
          <mxGeometry x="320" y="440" width="60" height="30" as="geometry" />
        </mxCell>
        <mxCell id="Y2xVMp4MkkQPzRskuGpE-36" value="" style="verticalLabelPosition=bottom;shadow=0;dashed=0;align=center;html=1;verticalAlign=top;strokeWidth=1;shape=mxgraph.mockup.markup.curlyBrace;strokeColor=#B3B3B3;rounded=0;sketch=0;fontSize=11;fontColor=#CCCCCC;fillColor=#CCCCCC;rotation=-180;" parent="1" vertex="1">
          <mxGeometry x="80" y="680" width="150" height="20" as="geometry" />
        </mxCell>
        <mxCell id="Y2xVMp4MkkQPzRskuGpE-38" value="&lt;font color=&quot;#990000&quot;&gt;&lt;b&gt;Non-concurrent data for arm 3&lt;/b&gt;&lt;/font&gt;" style="text;html=1;strokeColor=none;fillColor=none;align=center;verticalAlign=middle;whiteSpace=wrap;rounded=0;fontSize=12;fontColor=#111D4F;" parent="1" vertex="1">
          <mxGeometry x="91.25" y="700" width="127.5" height="30" as="geometry" />
        </mxCell>
        <mxCell id="Y2xVMp4MkkQPzRskuGpE-39" value="&lt;font color=&quot;#990000&quot;&gt;&lt;b&gt;Concurrent data for arm 3&lt;/b&gt;&lt;/font&gt;" style="text;html=1;strokeColor=none;fillColor=none;align=center;verticalAlign=middle;whiteSpace=wrap;rounded=0;fontSize=12;fontColor=#111D4F;" parent="1" vertex="1">
          <mxGeometry x="256.88" y="700" width="97.5" height="30" as="geometry" />
        </mxCell>
        <mxCell id="Y2xVMp4MkkQPzRskuGpE-43" value="&lt;font&gt;&lt;b&gt;Data used for the analysis of arm 3&lt;/b&gt;&lt;/font&gt;" style="text;html=1;strokeColor=none;fillColor=none;align=center;verticalAlign=middle;whiteSpace=wrap;rounded=0;fontSize=12;fontColor=#000000;" parent="1" vertex="1">
          <mxGeometry x="579" y="770" width="180" height="30" as="geometry" />
        </mxCell>
        <mxCell id="Y2xVMp4MkkQPzRskuGpE-48" value="" style="rounded=0;whiteSpace=wrap;html=1;strokeWidth=1;fillWeight=-1;hachureGap=8;hachureAngle=45;fillColor=#000000;sketch=1;shadow=0;strokeColor=#000000;fontColor=#000000;fillStyle=cross-hatch;jiggle=0;" parent="1" vertex="1">
          <mxGeometry x="549" y="770" width="30" height="30" as="geometry" />
        </mxCell>
        <mxCell id="nWOyR-bEfU8NjaZkbj3d-1" value="" style="rounded=0;whiteSpace=wrap;html=1;strokeWidth=1;fillWeight=1;hachureGap=8;hachureAngle=45;fillColor=#0E8088;sketch=1;shadow=0;strokeColor=#0E8088;fontColor=#111D4F;fillStyle=cross-hatch;jiggle=0;" parent="1" vertex="1">
          <mxGeometry x="150" y="568" width="170" height="20" as="geometry" />
        </mxCell>
        <mxCell id="nWOyR-bEfU8NjaZkbj3d-3" value="" style="rounded=0;whiteSpace=wrap;html=1;strokeWidth=1;fillWeight=1;hachureGap=8;hachureAngle=45;fillColor=#D6B656;sketch=1;shadow=0;strokeColor=#D6B656;fontColor=#111D4F;fillStyle=cross-hatch;jiggle=0;" parent="1" vertex="1">
          <mxGeometry x="80" y="610" width="200" height="20" as="geometry" />
        </mxCell>
        <mxCell id="UpBqw47bed0QZ7fs-QAz-2" value="" style="endArrow=classic;html=1;rounded=0;strokeColor=#000000;" edge="1" parent="1">
          <mxGeometry width="50" height="50" relative="1" as="geometry">
            <mxPoint x="477" y="680" as="sourcePoint" />
            <mxPoint x="817" y="680" as="targetPoint" />
          </mxGeometry>
        </mxCell>
        <mxCell id="UpBqw47bed0QZ7fs-QAz-3" value="&lt;font&gt;&lt;b&gt;Time&lt;/b&gt;&lt;/font&gt;" style="text;html=1;strokeColor=none;fillColor=none;align=center;verticalAlign=middle;whiteSpace=wrap;rounded=0;fontColor=#000000;" vertex="1" parent="1">
          <mxGeometry x="778" y="690" width="60" height="20" as="geometry" />
        </mxCell>
        <mxCell id="UpBqw47bed0QZ7fs-QAz-4" value="" style="rounded=0;whiteSpace=wrap;html=1;fontColor=#333333;fillColor=#f5f5f5;strokeColor=#666666;" vertex="1" parent="1">
          <mxGeometry x="477" y="650" width="300" height="20" as="geometry" />
        </mxCell>
        <mxCell id="UpBqw47bed0QZ7fs-QAz-5" value="" style="rounded=0;whiteSpace=wrap;html=1;strokeWidth=1;fillWeight=1;hachureGap=8;hachureAngle=45;fillColor=#4D4D4D;sketch=1;shadow=0;fontColor=#111D4F;strokeColor=#4D4D4D;sketchStyle=rough;resizeWidth=0;allowArrows=1;imageAspect=1;jiggle=0;fillStyle=cross-hatch;" vertex="1" parent="1">
          <mxGeometry x="477" y="650" width="300" height="20" as="geometry" />
        </mxCell>
        <mxCell id="UpBqw47bed0QZ7fs-QAz-6" value="" style="rounded=0;whiteSpace=wrap;html=1;shadow=0;sketch=0;fillColor=#fff2cc;strokeColor=#d6b656;" vertex="1" parent="1">
          <mxGeometry x="477" y="610" width="200" height="20" as="geometry" />
        </mxCell>
        <mxCell id="UpBqw47bed0QZ7fs-QAz-7" value="" style="rounded=0;whiteSpace=wrap;html=1;shadow=0;sketch=0;fillColor=#b0e3e6;strokeColor=#0e8088;" vertex="1" parent="1">
          <mxGeometry x="547" y="568" width="170" height="20" as="geometry" />
        </mxCell>
        <mxCell id="UpBqw47bed0QZ7fs-QAz-8" value="" style="rounded=0;whiteSpace=wrap;html=1;shadow=0;sketch=0;fillColor=#d0cee2;strokeColor=#56517e;" vertex="1" parent="1">
          <mxGeometry x="627" y="530" width="150" height="20" as="geometry" />
        </mxCell>
        <mxCell id="UpBqw47bed0QZ7fs-QAz-9" value="" style="rounded=0;whiteSpace=wrap;html=1;strokeWidth=1;fillWeight=1;hachureGap=8;hachureAngle=45;fillColor=#56517E;sketch=1;shadow=0;strokeColor=#56517E;fontColor=#111D4F;fillStyle=cross-hatch;jiggle=0;" vertex="1" parent="1">
          <mxGeometry x="628.25" y="530" width="148.75" height="20" as="geometry" />
        </mxCell>
        <mxCell id="UpBqw47bed0QZ7fs-QAz-10" value="Control" style="text;html=1;strokeColor=none;fillColor=none;align=center;verticalAlign=middle;whiteSpace=wrap;rounded=0;fontColor=#000000;" vertex="1" parent="1">
          <mxGeometry x="417" y="645" width="60" height="30" as="geometry" />
        </mxCell>
        <mxCell id="UpBqw47bed0QZ7fs-QAz-11" value="Arm 1" style="text;html=1;strokeColor=none;fillColor=none;align=center;verticalAlign=middle;whiteSpace=wrap;rounded=0;fontColor=#000000;" vertex="1" parent="1">
          <mxGeometry x="427" y="605" width="50" height="30" as="geometry" />
        </mxCell>
        <mxCell id="UpBqw47bed0QZ7fs-QAz-12" value="Arm 2" style="text;html=1;strokeColor=none;fillColor=none;align=center;verticalAlign=middle;whiteSpace=wrap;rounded=0;fontColor=#000000;" vertex="1" parent="1">
          <mxGeometry x="494" y="563" width="50" height="30" as="geometry" />
        </mxCell>
        <mxCell id="UpBqw47bed0QZ7fs-QAz-13" value="Arm 3" style="text;html=1;strokeColor=none;fillColor=none;align=center;verticalAlign=middle;whiteSpace=wrap;rounded=0;fontColor=#000000;" vertex="1" parent="1">
          <mxGeometry x="577" y="525" width="50" height="30" as="geometry" />
        </mxCell>
        <mxCell id="UpBqw47bed0QZ7fs-QAz-18" value="" style="verticalLabelPosition=bottom;shadow=0;dashed=0;align=center;html=1;verticalAlign=top;strokeWidth=1;shape=mxgraph.mockup.markup.curlyBrace;strokeColor=#4D4D4D;rounded=0;fontColor=#4D4D4D;fillColor=#4D4D4D;" vertex="1" parent="1">
          <mxGeometry x="477" y="470" width="50" height="10" as="geometry" />
        </mxCell>
        <mxCell id="UpBqw47bed0QZ7fs-QAz-19" value="" style="verticalLabelPosition=bottom;shadow=0;dashed=0;align=center;html=1;verticalAlign=top;strokeWidth=1;shape=mxgraph.mockup.markup.curlyBrace;strokeColor=#4D4D4D;rounded=0;fontColor=#4D4D4D;fillColor=#4D4D4D;" vertex="1" parent="1">
          <mxGeometry x="527" y="470" width="50" height="10" as="geometry" />
        </mxCell>
        <mxCell id="UpBqw47bed0QZ7fs-QAz-20" value="" style="verticalLabelPosition=bottom;shadow=0;dashed=0;align=center;html=1;verticalAlign=top;strokeWidth=1;shape=mxgraph.mockup.markup.curlyBrace;strokeColor=#4D4D4D;rounded=0;fontColor=#4D4D4D;fillColor=#4D4D4D;" vertex="1" parent="1">
          <mxGeometry x="577.63" y="470" width="49.37" height="10" as="geometry" />
        </mxCell>
        <mxCell id="UpBqw47bed0QZ7fs-QAz-21" value="" style="verticalLabelPosition=bottom;shadow=0;dashed=0;align=center;html=1;verticalAlign=top;strokeWidth=1;shape=mxgraph.mockup.markup.curlyBrace;strokeColor=#4D4D4D;rounded=0;fontColor=#4D4D4D;fillColor=#4D4D4D;" vertex="1" parent="1">
          <mxGeometry x="627" y="470" width="50" height="10" as="geometry" />
        </mxCell>
        <mxCell id="UpBqw47bed0QZ7fs-QAz-22" value="" style="verticalLabelPosition=bottom;shadow=0;dashed=0;align=center;html=1;verticalAlign=top;strokeWidth=1;shape=mxgraph.mockup.markup.curlyBrace;strokeColor=#4D4D4D;rounded=0;fontColor=#4D4D4D;fillColor=#4D4D4D;" vertex="1" parent="1">
          <mxGeometry x="677" y="470" width="50" height="10" as="geometry" />
        </mxCell>
        <mxCell id="UpBqw47bed0QZ7fs-QAz-25" value="time bucket 1" style="text;html=1;strokeColor=none;fillColor=none;align=center;verticalAlign=middle;whiteSpace=wrap;rounded=0;fontColor=#000000;fontSize=11;" vertex="1" parent="1">
          <mxGeometry x="724.5" y="440" width="55" height="30" as="geometry" />
        </mxCell>
        <mxCell id="UpBqw47bed0QZ7fs-QAz-30" value="" style="verticalLabelPosition=bottom;shadow=0;dashed=0;align=center;html=1;verticalAlign=top;strokeWidth=1;shape=mxgraph.mockup.markup.curlyBrace;strokeColor=#B3B3B3;rounded=0;sketch=0;fontSize=11;fontColor=#CCCCCC;fillColor=#CCCCCC;rotation=-180;" vertex="1" parent="1">
          <mxGeometry x="477" y="680" width="150" height="20" as="geometry" />
        </mxCell>
        <mxCell id="UpBqw47bed0QZ7fs-QAz-32" value="&lt;font color=&quot;#990000&quot;&gt;&lt;b&gt;Non-concurrent data for arm 3&lt;/b&gt;&lt;/font&gt;" style="text;html=1;strokeColor=none;fillColor=none;align=center;verticalAlign=middle;whiteSpace=wrap;rounded=0;fontSize=12;fontColor=#111D4F;" vertex="1" parent="1">
          <mxGeometry x="488.25" y="700" width="127.5" height="30" as="geometry" />
        </mxCell>
        <mxCell id="UpBqw47bed0QZ7fs-QAz-33" value="&lt;font color=&quot;#990000&quot;&gt;&lt;b&gt;Concurrent data for arm 3&lt;/b&gt;&lt;/font&gt;" style="text;html=1;strokeColor=none;fillColor=none;align=center;verticalAlign=middle;whiteSpace=wrap;rounded=0;fontSize=12;fontColor=#111D4F;" vertex="1" parent="1">
          <mxGeometry x="653.88" y="700" width="97.5" height="30" as="geometry" />
        </mxCell>
        <mxCell id="UpBqw47bed0QZ7fs-QAz-34" value="" style="rounded=0;whiteSpace=wrap;html=1;strokeWidth=1;fillWeight=1;hachureGap=8;hachureAngle=45;fillColor=#0E8088;sketch=1;shadow=0;strokeColor=#0E8088;fontColor=#111D4F;fillStyle=cross-hatch;jiggle=0;" vertex="1" parent="1">
          <mxGeometry x="547" y="568" width="170" height="20" as="geometry" />
        </mxCell>
        <mxCell id="UpBqw47bed0QZ7fs-QAz-35" value="" style="rounded=0;whiteSpace=wrap;html=1;strokeWidth=1;fillWeight=1;hachureGap=8;hachureAngle=45;fillColor=#D6B656;sketch=1;shadow=0;strokeColor=#D6B656;fontColor=#111D4F;fillStyle=cross-hatch;jiggle=0;" vertex="1" parent="1">
          <mxGeometry x="477" y="610" width="200" height="20" as="geometry" />
        </mxCell>
        <mxCell id="UpBqw47bed0QZ7fs-QAz-37" value="" style="verticalLabelPosition=bottom;shadow=0;dashed=0;align=center;html=1;verticalAlign=top;strokeWidth=1;shape=mxgraph.mockup.markup.curlyBrace;strokeColor=#4D4D4D;rounded=0;fontColor=#4D4D4D;fillColor=#4D4D4D;" vertex="1" parent="1">
          <mxGeometry x="727" y="470" width="50" height="10" as="geometry" />
        </mxCell>
        <mxCell id="UpBqw47bed0QZ7fs-QAz-38" value="time bucket 2" style="text;html=1;strokeColor=none;fillColor=none;align=center;verticalAlign=middle;whiteSpace=wrap;rounded=0;fontColor=#000000;fontSize=11;" vertex="1" parent="1">
          <mxGeometry x="674.5" y="440" width="55" height="30" as="geometry" />
        </mxCell>
        <mxCell id="UpBqw47bed0QZ7fs-QAz-39" value="time bucket 3" style="text;html=1;strokeColor=none;fillColor=none;align=center;verticalAlign=middle;whiteSpace=wrap;rounded=0;fontColor=#000000;fontSize=11;" vertex="1" parent="1">
          <mxGeometry x="624.5" y="440" width="55" height="30" as="geometry" />
        </mxCell>
        <mxCell id="UpBqw47bed0QZ7fs-QAz-40" value="time bucket 4" style="text;html=1;strokeColor=none;fillColor=none;align=center;verticalAlign=middle;whiteSpace=wrap;rounded=0;fontColor=#000000;fontSize=11;" vertex="1" parent="1">
          <mxGeometry x="574.82" y="440" width="55" height="30" as="geometry" />
        </mxCell>
        <mxCell id="UpBqw47bed0QZ7fs-QAz-41" value="time bucket 5" style="text;html=1;strokeColor=none;fillColor=none;align=center;verticalAlign=middle;whiteSpace=wrap;rounded=0;fontColor=#000000;fontSize=11;" vertex="1" parent="1">
          <mxGeometry x="524.5" y="440" width="55" height="30" as="geometry" />
        </mxCell>
        <mxCell id="UpBqw47bed0QZ7fs-QAz-42" value="time bucket 6" style="text;html=1;strokeColor=none;fillColor=none;align=center;verticalAlign=middle;whiteSpace=wrap;rounded=0;fontColor=#000000;fontSize=11;" vertex="1" parent="1">
          <mxGeometry x="474.5" y="440" width="55" height="30" as="geometry" />
        </mxCell>
        <mxCell id="UpBqw47bed0QZ7fs-QAz-43" value="" style="endArrow=classic;html=1;rounded=0;strokeColor=#000000;" edge="1" parent="1">
          <mxGeometry width="50" height="50" relative="1" as="geometry">
            <mxPoint x="873" y="680" as="sourcePoint" />
            <mxPoint x="1213" y="680" as="targetPoint" />
          </mxGeometry>
        </mxCell>
        <mxCell id="UpBqw47bed0QZ7fs-QAz-44" value="&lt;font&gt;&lt;b&gt;Time&lt;/b&gt;&lt;/font&gt;" style="text;html=1;strokeColor=none;fillColor=none;align=center;verticalAlign=middle;whiteSpace=wrap;rounded=0;fontColor=#000000;" vertex="1" parent="1">
          <mxGeometry x="1167" y="690" width="60" height="20" as="geometry" />
        </mxCell>
        <mxCell id="UpBqw47bed0QZ7fs-QAz-45" value="" style="rounded=0;whiteSpace=wrap;html=1;fontColor=#333333;fillColor=#f5f5f5;strokeColor=#666666;" vertex="1" parent="1">
          <mxGeometry x="873" y="650" width="300" height="20" as="geometry" />
        </mxCell>
        <mxCell id="UpBqw47bed0QZ7fs-QAz-46" value="" style="rounded=0;whiteSpace=wrap;html=1;strokeWidth=1;fillWeight=1;hachureGap=8;hachureAngle=45;fillColor=#4D4D4D;sketch=1;shadow=0;fontColor=#111D4F;strokeColor=#4D4D4D;sketchStyle=rough;resizeWidth=0;allowArrows=1;imageAspect=1;jiggle=0;fillStyle=cross-hatch;" vertex="1" parent="1">
          <mxGeometry x="873" y="650" width="300" height="20" as="geometry" />
        </mxCell>
        <mxCell id="UpBqw47bed0QZ7fs-QAz-47" value="" style="rounded=0;whiteSpace=wrap;html=1;shadow=0;sketch=0;fillColor=#fff2cc;strokeColor=#d6b656;" vertex="1" parent="1">
          <mxGeometry x="873" y="610" width="200" height="20" as="geometry" />
        </mxCell>
        <mxCell id="UpBqw47bed0QZ7fs-QAz-48" value="" style="rounded=0;whiteSpace=wrap;html=1;shadow=0;sketch=0;fillColor=#b0e3e6;strokeColor=#0e8088;" vertex="1" parent="1">
          <mxGeometry x="943" y="568" width="170" height="20" as="geometry" />
        </mxCell>
        <mxCell id="UpBqw47bed0QZ7fs-QAz-49" value="" style="rounded=0;whiteSpace=wrap;html=1;shadow=0;sketch=0;fillColor=#d0cee2;strokeColor=#56517e;" vertex="1" parent="1">
          <mxGeometry x="1023" y="530" width="150" height="20" as="geometry" />
        </mxCell>
        <mxCell id="UpBqw47bed0QZ7fs-QAz-50" value="" style="rounded=0;whiteSpace=wrap;html=1;strokeWidth=1;fillWeight=1;hachureGap=8;hachureAngle=45;fillColor=#56517E;sketch=1;shadow=0;strokeColor=#56517E;fontColor=#111D4F;fillStyle=cross-hatch;jiggle=0;" vertex="1" parent="1">
          <mxGeometry x="1024.25" y="530" width="148.75" height="20" as="geometry" />
        </mxCell>
        <mxCell id="UpBqw47bed0QZ7fs-QAz-51" value="Control" style="text;html=1;strokeColor=none;fillColor=none;align=center;verticalAlign=middle;whiteSpace=wrap;rounded=0;fontColor=#000000;" vertex="1" parent="1">
          <mxGeometry x="813" y="645" width="60" height="30" as="geometry" />
        </mxCell>
        <mxCell id="UpBqw47bed0QZ7fs-QAz-52" value="Arm 1" style="text;html=1;strokeColor=none;fillColor=none;align=center;verticalAlign=middle;whiteSpace=wrap;rounded=0;fontColor=#000000;" vertex="1" parent="1">
          <mxGeometry x="823" y="605" width="50" height="30" as="geometry" />
        </mxCell>
        <mxCell id="UpBqw47bed0QZ7fs-QAz-53" value="Arm 2" style="text;html=1;strokeColor=none;fillColor=none;align=center;verticalAlign=middle;whiteSpace=wrap;rounded=0;fontColor=#000000;" vertex="1" parent="1">
          <mxGeometry x="893" y="563" width="50" height="30" as="geometry" />
        </mxCell>
        <mxCell id="UpBqw47bed0QZ7fs-QAz-54" value="Arm 3" style="text;html=1;strokeColor=none;fillColor=none;align=center;verticalAlign=middle;whiteSpace=wrap;rounded=0;fontColor=#000000;" vertex="1" parent="1">
          <mxGeometry x="973" y="525" width="50" height="30" as="geometry" />
        </mxCell>
        <mxCell id="UpBqw47bed0QZ7fs-QAz-55" value="" style="endArrow=none;dashed=1;html=1;rounded=0;strokeColor=#4D4D4D;fontColor=#111D4F;" edge="1" parent="1">
          <mxGeometry width="50" height="50" relative="1" as="geometry">
            <mxPoint x="943" y="680" as="sourcePoint" />
            <mxPoint x="943" y="480" as="targetPoint" />
          </mxGeometry>
        </mxCell>
        <mxCell id="UpBqw47bed0QZ7fs-QAz-56" value="" style="endArrow=none;dashed=1;html=1;rounded=0;strokeColor=#4D4D4D;fontColor=#111D4F;" edge="1" parent="1">
          <mxGeometry width="50" height="50" relative="1" as="geometry">
            <mxPoint x="1023.25" y="680" as="sourcePoint" />
            <mxPoint x="1023.25" y="480" as="targetPoint" />
          </mxGeometry>
        </mxCell>
        <mxCell id="UpBqw47bed0QZ7fs-QAz-59" value="" style="verticalLabelPosition=bottom;shadow=0;dashed=0;align=center;html=1;verticalAlign=top;strokeWidth=1;shape=mxgraph.mockup.markup.curlyBrace;strokeColor=#4D4D4D;rounded=0;fontColor=#4D4D4D;fillColor=#4D4D4D;" vertex="1" parent="1">
          <mxGeometry x="873" y="470" width="70" height="10" as="geometry" />
        </mxCell>
        <mxCell id="UpBqw47bed0QZ7fs-QAz-60" value="" style="verticalLabelPosition=bottom;shadow=0;dashed=0;align=center;html=1;verticalAlign=top;strokeWidth=1;shape=mxgraph.mockup.markup.curlyBrace;strokeColor=#4D4D4D;rounded=0;fontColor=#4D4D4D;fillColor=#4D4D4D;" vertex="1" parent="1">
          <mxGeometry x="943" y="470" width="80" height="10" as="geometry" />
        </mxCell>
        <mxCell id="UpBqw47bed0QZ7fs-QAz-65" value="" style="endArrow=none;dashed=1;html=1;rounded=0;strokeColor=#4D4D4D;fontColor=#111D4F;" edge="1" parent="1">
          <mxGeometry width="50" height="50" relative="1" as="geometry">
            <mxPoint x="873" y="680" as="sourcePoint" />
            <mxPoint x="873" y="480" as="targetPoint" />
          </mxGeometry>
        </mxCell>
        <mxCell id="UpBqw47bed0QZ7fs-QAz-66" value="period&lt;br&gt;1" style="text;html=1;strokeColor=none;fillColor=none;align=center;verticalAlign=middle;whiteSpace=wrap;rounded=0;fontColor=#000000;fontSize=11;" vertex="1" parent="1">
          <mxGeometry x="878" y="440" width="60" height="30" as="geometry" />
        </mxCell>
        <mxCell id="UpBqw47bed0QZ7fs-QAz-67" value="period&lt;br&gt;2" style="text;html=1;strokeColor=none;fillColor=none;align=center;verticalAlign=middle;whiteSpace=wrap;rounded=0;fontColor=#000000;fontSize=11;" vertex="1" parent="1">
          <mxGeometry x="953" y="440" width="60" height="30" as="geometry" />
        </mxCell>
        <mxCell id="UpBqw47bed0QZ7fs-QAz-71" value="" style="verticalLabelPosition=bottom;shadow=0;dashed=0;align=center;html=1;verticalAlign=top;strokeWidth=1;shape=mxgraph.mockup.markup.curlyBrace;strokeColor=#B3B3B3;rounded=0;sketch=0;fontSize=11;fontColor=#CCCCCC;fillColor=#CCCCCC;rotation=-180;" vertex="1" parent="1">
          <mxGeometry x="873" y="680" width="150" height="20" as="geometry" />
        </mxCell>
        <mxCell id="UpBqw47bed0QZ7fs-QAz-73" value="&lt;font color=&quot;#990000&quot;&gt;&lt;b&gt;Non-concurrent data for arm 3&lt;/b&gt;&lt;/font&gt;" style="text;html=1;strokeColor=none;fillColor=none;align=center;verticalAlign=middle;whiteSpace=wrap;rounded=0;fontSize=12;fontColor=#111D4F;" vertex="1" parent="1">
          <mxGeometry x="884.25" y="700" width="127.5" height="30" as="geometry" />
        </mxCell>
        <mxCell id="UpBqw47bed0QZ7fs-QAz-74" value="&lt;font color=&quot;#990000&quot;&gt;&lt;b&gt;Concurrent data for arm 3&lt;/b&gt;&lt;/font&gt;" style="text;html=1;strokeColor=none;fillColor=none;align=center;verticalAlign=middle;whiteSpace=wrap;rounded=0;fontSize=12;fontColor=#111D4F;" vertex="1" parent="1">
          <mxGeometry x="1049.88" y="700" width="97.5" height="30" as="geometry" />
        </mxCell>
        <mxCell id="UpBqw47bed0QZ7fs-QAz-77" value="" style="verticalLabelPosition=bottom;shadow=0;dashed=0;align=center;html=1;verticalAlign=top;strokeWidth=1;shape=mxgraph.mockup.markup.curlyBrace;strokeColor=#B3B3B3;rounded=0;sketch=0;fontSize=11;fontColor=#CCCCCC;fillColor=#CCCCCC;rotation=-180;" vertex="1" parent="1">
          <mxGeometry x="230" y="681" width="150" height="20" as="geometry" />
        </mxCell>
        <mxCell id="UpBqw47bed0QZ7fs-QAz-78" value="" style="verticalLabelPosition=bottom;shadow=0;dashed=0;align=center;html=1;verticalAlign=top;strokeWidth=1;shape=mxgraph.mockup.markup.curlyBrace;strokeColor=#B3B3B3;rounded=0;sketch=0;fontSize=11;fontColor=#CCCCCC;fillColor=#CCCCCC;rotation=-180;" vertex="1" parent="1">
          <mxGeometry x="627" y="680" width="150" height="20" as="geometry" />
        </mxCell>
        <mxCell id="UpBqw47bed0QZ7fs-QAz-79" value="" style="verticalLabelPosition=bottom;shadow=0;dashed=0;align=center;html=1;verticalAlign=top;strokeWidth=1;shape=mxgraph.mockup.markup.curlyBrace;strokeColor=#B3B3B3;rounded=0;sketch=0;fontSize=11;fontColor=#CCCCCC;fillColor=#CCCCCC;rotation=-180;" vertex="1" parent="1">
          <mxGeometry x="1024" y="680" width="150" height="20" as="geometry" />
        </mxCell>
        <mxCell id="Y2xVMp4MkkQPzRskuGpE-18" value="" style="endArrow=none;dashed=1;html=1;rounded=0;strokeColor=#4D4D4D;fontColor=#111D4F;" parent="1" edge="1">
          <mxGeometry width="50" height="50" relative="1" as="geometry">
            <mxPoint x="150" y="678" as="sourcePoint" />
            <mxPoint x="150" y="478" as="targetPoint" />
          </mxGeometry>
        </mxCell>
        <mxCell id="Y2xVMp4MkkQPzRskuGpE-28" value="" style="endArrow=none;dashed=1;html=1;rounded=0;strokeColor=#4D4D4D;fontColor=#111D4F;" parent="1" edge="1">
          <mxGeometry width="50" height="50" relative="1" as="geometry">
            <mxPoint x="80" y="680" as="sourcePoint" />
            <mxPoint x="80" y="480" as="targetPoint" />
          </mxGeometry>
        </mxCell>
        <mxCell id="Y2xVMp4MkkQPzRskuGpE-19" value="" style="endArrow=none;dashed=1;html=1;rounded=0;strokeColor=#4D4D4D;fontColor=#111D4F;" parent="1" edge="1">
          <mxGeometry width="50" height="50" relative="1" as="geometry">
            <mxPoint x="230.25" y="680" as="sourcePoint" />
            <mxPoint x="230.25" y="480" as="targetPoint" />
          </mxGeometry>
        </mxCell>
        <mxCell id="Y2xVMp4MkkQPzRskuGpE-20" value="" style="endArrow=none;dashed=1;html=1;rounded=0;strokeColor=#4D4D4D;fontColor=#111D4F;" parent="1" edge="1">
          <mxGeometry width="50" height="50" relative="1" as="geometry">
            <mxPoint x="279.99999999999994" y="680" as="sourcePoint" />
            <mxPoint x="279.99999999999994" y="480" as="targetPoint" />
          </mxGeometry>
        </mxCell>
        <mxCell id="Y2xVMp4MkkQPzRskuGpE-21" value="" style="endArrow=none;dashed=1;html=1;rounded=0;strokeColor=#4D4D4D;fontColor=#111D4F;" parent="1" edge="1">
          <mxGeometry width="50" height="50" relative="1" as="geometry">
            <mxPoint x="320" y="680" as="sourcePoint" />
            <mxPoint x="320" y="480" as="targetPoint" />
          </mxGeometry>
        </mxCell>
        <mxCell id="Y2xVMp4MkkQPzRskuGpE-27" value="" style="endArrow=none;dashed=1;html=1;rounded=0;strokeColor=#4D4D4D;fontColor=#111D4F;" parent="1" edge="1">
          <mxGeometry width="50" height="50" relative="1" as="geometry">
            <mxPoint x="380" y="680" as="sourcePoint" />
            <mxPoint x="380" y="480" as="targetPoint" />
          </mxGeometry>
        </mxCell>
        <mxCell id="UpBqw47bed0QZ7fs-QAz-24" value="" style="endArrow=none;dashed=1;html=1;rounded=0;strokeColor=#4D4D4D;fontColor=#111D4F;" edge="1" parent="1">
          <mxGeometry width="50" height="50" relative="1" as="geometry">
            <mxPoint x="477" y="680" as="sourcePoint" />
            <mxPoint x="477" y="480" as="targetPoint" />
          </mxGeometry>
        </mxCell>
        <mxCell id="UpBqw47bed0QZ7fs-QAz-14" value="" style="endArrow=none;dashed=1;html=1;rounded=0;strokeColor=#4D4D4D;fontColor=#111D4F;" edge="1" parent="1">
          <mxGeometry width="50" height="50" relative="1" as="geometry">
            <mxPoint x="527" y="680" as="sourcePoint" />
            <mxPoint x="527" y="480" as="targetPoint" />
          </mxGeometry>
        </mxCell>
        <mxCell id="UpBqw47bed0QZ7fs-QAz-15" value="" style="endArrow=none;dashed=1;html=1;rounded=0;strokeColor=#4D4D4D;fontColor=#111D4F;" edge="1" parent="1">
          <mxGeometry width="50" height="50" relative="1" as="geometry">
            <mxPoint x="577" y="680" as="sourcePoint" />
            <mxPoint x="577" y="480" as="targetPoint" />
          </mxGeometry>
        </mxCell>
        <mxCell id="UpBqw47bed0QZ7fs-QAz-16" value="" style="endArrow=none;dashed=1;html=1;rounded=0;strokeColor=#4D4D4D;fontColor=#111D4F;" edge="1" parent="1">
          <mxGeometry width="50" height="50" relative="1" as="geometry">
            <mxPoint x="627.09" y="680" as="sourcePoint" />
            <mxPoint x="627.09" y="480" as="targetPoint" />
          </mxGeometry>
        </mxCell>
        <mxCell id="UpBqw47bed0QZ7fs-QAz-17" value="" style="endArrow=none;dashed=1;html=1;rounded=0;strokeColor=#4D4D4D;fontColor=#111D4F;" edge="1" parent="1">
          <mxGeometry width="50" height="50" relative="1" as="geometry">
            <mxPoint x="677" y="680" as="sourcePoint" />
            <mxPoint x="677" y="480" as="targetPoint" />
          </mxGeometry>
        </mxCell>
        <mxCell id="UpBqw47bed0QZ7fs-QAz-36" value="" style="endArrow=none;dashed=1;html=1;rounded=0;strokeColor=#4D4D4D;fontColor=#111D4F;" edge="1" parent="1">
          <mxGeometry width="50" height="50" relative="1" as="geometry">
            <mxPoint x="727" y="680" as="sourcePoint" />
            <mxPoint x="727" y="480" as="targetPoint" />
          </mxGeometry>
        </mxCell>
        <mxCell id="UpBqw47bed0QZ7fs-QAz-23" value="" style="endArrow=none;dashed=1;html=1;rounded=0;strokeColor=#4D4D4D;fontColor=#111D4F;" edge="1" parent="1">
          <mxGeometry width="50" height="50" relative="1" as="geometry">
            <mxPoint x="777" y="680" as="sourcePoint" />
            <mxPoint x="777" y="480" as="targetPoint" />
          </mxGeometry>
        </mxCell>
        <mxCell id="UpBqw47bed0QZ7fs-QAz-82" value="&lt;font size=&quot;1&quot;&gt;&lt;b style=&quot;font-size: 20px;&quot;&gt;A)&lt;/b&gt;&lt;/font&gt;" style="text;html=1;strokeColor=none;fillColor=none;align=center;verticalAlign=middle;whiteSpace=wrap;rounded=0;fontSize=12;fontColor=#000000;" vertex="1" parent="1">
          <mxGeometry x="80" y="400" width="35.5" height="30" as="geometry" />
        </mxCell>
        <mxCell id="UpBqw47bed0QZ7fs-QAz-83" value="&lt;font size=&quot;1&quot;&gt;&lt;b style=&quot;font-size: 20px;&quot;&gt;B)&lt;/b&gt;&lt;/font&gt;" style="text;html=1;strokeColor=none;fillColor=none;align=center;verticalAlign=middle;whiteSpace=wrap;rounded=0;fontSize=12;fontColor=#000000;" vertex="1" parent="1">
          <mxGeometry x="477" y="400" width="35.5" height="30" as="geometry" />
        </mxCell>
        <mxCell id="UpBqw47bed0QZ7fs-QAz-84" value="&lt;font size=&quot;1&quot;&gt;&lt;b style=&quot;font-size: 20px;&quot;&gt;C)&lt;/b&gt;&lt;/font&gt;" style="text;html=1;strokeColor=none;fillColor=none;align=center;verticalAlign=middle;whiteSpace=wrap;rounded=0;fontSize=12;fontColor=#000000;" vertex="1" parent="1">
          <mxGeometry x="873" y="400" width="35.5" height="30" as="geometry" />
        </mxCell>
      </root>
    </mxGraphModel>
  </diagram>
</mxfile>
